<?xml version="1.0" standalone="no"?>
<!DOCTYPE svg PUBLIC "-//W3C//DTD SVG 1.1//EN" "http://www.w3.org/Graphics/SVG/1.1/DTD/svg11.dtd" >
<svg>
<metadata>
Created by FontForge 20110222 at Mon Jun  9 18:47:45 2014
 By Orthosie Webhosting
Copyright (c) 2006 by Matthew Welch. All Rights Reserved.
</metadata>
<defs>
<font id="PropagandaRegular" horiz-adv-x="140" >
  <font-face 
    font-family="Propaganda"
    font-weight="400"
    font-stretch="normal"
    units-per-em="200"
    panose-1="0 0 0 0 0 0 0 0 0 0"
    ascent="160"
    descent="-40"
    cap-height="132"
    bbox="0 -22 132 154"
    underline-thickness="0"
    underline-position="0"
    unicode-range="U+0020-0072"
  />
<missing-glyph horiz-adv-x="0" 
 />
    <glyph glyph-name=".notdef" horiz-adv-x="0" 
 />
    <glyph glyph-name="glyph1" horiz-adv-x="0" 
 />
    <glyph glyph-name="nonmarkingreturn" horiz-adv-x="66" 
 />
    <glyph glyph-name="space" unicode=" " horiz-adv-x="80" 
 />
    <glyph glyph-name="exclam" unicode="!" horiz-adv-x="64" 
d="M44 44v-44h-44v44h44zM0 66v66h44v-66h-44z" />
    <glyph glyph-name="quotedbl" unicode="&#x22;" horiz-adv-x="64" 
d="M44 132v-44h-15v44h15zM0 88v44h15v-44h-15z" />
    <glyph glyph-name="dollar" unicode="$" 
d="M120 88h-50l44 -44h6v-44h-38v-22h-44v22h-38v44h50l-44 44h-6v44h38v22h44v-22h38v-44z" />
    <glyph glyph-name="ampersand" unicode="&#x26;" 
d="M0 38v44h38v38h43v-38h39v-44h-38v-38h-44v38h-38z" />
    <glyph glyph-name="ampersand" unicode="+" 
d="M0 38v44h38v38h43v-38h39v-44h-38v-38h-44v38h-38z" />
    <glyph glyph-name="quotesingle" unicode="'" horiz-adv-x="35" 
d="M0 88v44h15v-44h-15z" />
    <glyph glyph-name="parenleft" unicode="(" horiz-adv-x="86" 
d="M44 72v-34l16 -16h6v-44h-26l-40 40v74l40 40h26v-44h-6z" />
    <glyph glyph-name="parenright" unicode=")" horiz-adv-x="86" 
d="M22 72l-16 16h-6v44h26l40 -40v-74l-40 -40h-26v44h6l16 16v34z" />
    <glyph glyph-name="asterisk" unicode="*" 
d="M60 129l16 -44h44l-35 -27l12 -43l-37 26l-37 -26l12 43l-35 27h44z" />
    <glyph glyph-name="comma" unicode="," horiz-adv-x="64" 
d="M44 44v-26l-40 -40h-4v66h44z" />
    <glyph glyph-name="hyphen" unicode="-" horiz-adv-x="96" 
d="M0 38v44h76v-44h-76z" />
    <glyph glyph-name="period" unicode="." horiz-adv-x="64" 
d="M44 44v-44h-44v44h44z" />
    <glyph glyph-name="slash" unicode="/" 
d="M76 114v18h44v-38l-76 -76v-18h-44v38z" />
    <glyph glyph-name="zero" unicode="0" 
d="M0 0v132h120v-132h-120zM44 88v-44h32v44h-32z" />
    <glyph glyph-name="zero" unicode="o" 
d="M0 0v132h120v-132h-120zM44 88v-44h32v44h-32z" />
    <glyph glyph-name="zero" unicode="O" 
d="M0 0v132h120v-132h-120zM44 88v-44h32v44h-32z" />
    <glyph glyph-name="one" unicode="1" 
d="M22 88v44h60v-132h-44v88h-16z" />
    <glyph glyph-name="two" unicode="2" 
d="M0 88v44h120v-44h-6l-44 -44h50v-44h-120v44h6l44 44h-50z" />
    <glyph glyph-name="two" unicode="z" 
d="M0 88v44h120v-44h-6l-44 -44h50v-44h-120v44h6l44 44h-50z" />
    <glyph glyph-name="two" unicode="Z" 
d="M0 88v44h120v-44h-6l-44 -44h50v-44h-120v44h6l44 44h-50z" />
    <glyph glyph-name="three" unicode="3" 
d="M0 88v44h120v-44l-22 -22l22 -22v-44h-120v44h60l-22 22l22 22h-60z" />
    <glyph glyph-name="four" unicode="4" 
d="M44 98v-32h32v66h44v-132h-44v22h-76v76h44z" />
    <glyph glyph-name="five" unicode="5" 
d="M120 132v-44h-76v-22h-44v66h120zM0 44h60l16 16v6h44v-26l-40 -40h-80v44z" />
    <glyph glyph-name="six" unicode="6" 
d="M120 110v-110h-120v132h44v-22h76zM76 44v22h-32v-22h32z" />
    <glyph glyph-name="seven" unicode="7" 
d="M76 0v88h-32v-22h-44v66h120v-132h-44z" />
    <glyph glyph-name="eight" unicode="8" 
d="M0 0v132h120v-132h-120zM44 88v-6l16 -16l-16 -16v-6h32v6l-16 16l16 16v6h-32z" />
    <glyph glyph-name="nine" unicode="9" 
d="M0 22v110h120v-132h-44v22h-76zM44 88v-22h32v22h-32z" />
    <glyph glyph-name="colon" unicode=":" horiz-adv-x="64" 
d="M44 44v-44h-44v44h44zM0 66v44h44v-44h-44z" />
    <glyph glyph-name="semicolon" unicode=";" horiz-adv-x="64" 
d="M44 44v-26l-40 -40h-4v66h44zM0 66v44h44v-44h-44z" />
    <glyph glyph-name="question" unicode="?" 
d="M76 88h-76v44h120v-110h-76v-22h-44v66h76v22z" />
    <glyph glyph-name="at" unicode="@" 
d="M44 44h76v-44h-120v92l40 40h80v-66h-44v22h-16l-16 -16v-28z" />
    <glyph glyph-name="A" unicode="A" 
d="M0 0v92l40 40h80v-132h-44v22h-32v-22h-44zM44 72v-6h32v22h-16z" />
    <glyph glyph-name="A" unicode="a" 
d="M0 0v92l40 40h80v-132h-44v22h-32v-22h-44zM44 72v-6h32v22h-16z" />
    <glyph glyph-name="B" unicode="B" 
d="M0 0v132h120v-50l-16 -16l16 -16v-50h-120zM44 88v-44h22l-22 22l22 22h-22z" />
    <glyph glyph-name="B" unicode="b" 
d="M0 0v132h120v-50l-16 -16l16 -16v-50h-120zM44 88v-44h22l-22 22l22 22h-22z" />
    <glyph glyph-name="C" unicode="C" 
d="M44 72v-28h76v-44h-120v92l40 40h80v-44h-60z" />
    <glyph glyph-name="C" unicode="c" 
d="M44 72v-28h76v-44h-120v92l40 40h80v-44h-60z" />
    <glyph glyph-name="D" unicode="D" 
d="M0 0v132h80l40 -40v-92h-120zM44 88v-44h32v28l-16 16h-16z" />
    <glyph glyph-name="D" unicode="d" 
d="M0 0v132h80l40 -40v-92h-120zM44 88v-44h32v28l-16 16h-16z" />
    <glyph glyph-name="E" unicode="E" 
d="M120 88h-60l22 -22l-22 -22h60v-44h-120v44l22 22l-22 22v44h120v-44z" />
    <glyph glyph-name="E" unicode="e" 
d="M120 88h-60l22 -22l-22 -22h60v-44h-120v44l22 22l-22 22v44h120v-44z" />
    <glyph glyph-name="F" unicode="F" 
d="M44 72v-6h60v-44h-60v-22h-44v92l40 40h80v-44h-60z" />
    <glyph glyph-name="F" unicode="f" 
d="M44 72v-6h60v-44h-60v-22h-44v92l40 40h80v-44h-60z" />
    <glyph glyph-name="G" unicode="G" 
d="M44 72v-28h32v22h44v-66h-120v92l40 40h80v-44h-60z" />
    <glyph glyph-name="G" unicode="g" 
d="M44 72v-28h32v22h44v-66h-120v92l40 40h80v-44h-60z" />
    <glyph glyph-name="H" unicode="H" 
d="M44 132v-44h32v44h44v-132h-44v44h-32v-44h-44v132h44z" />
    <glyph glyph-name="H" unicode="h" 
d="M44 132v-44h32v44h44v-132h-44v44h-32v-44h-44v132h44z" />
    <glyph glyph-name="I" unicode="I" horiz-adv-x="64" 
d="M44 132v-132h-44v132h44z" />
    <glyph glyph-name="I" unicode="i" horiz-adv-x="64" 
d="M44 132v-132h-44v132h44z" />
    <glyph glyph-name="J" unicode="J" 
d="M76 132h44v-132h-80l-40 40v48h44v-28l16 -16h16v88z" />
    <glyph glyph-name="J" unicode="j" 
d="M76 132h44v-132h-80l-40 40v48h44v-28l16 -16h16v88z" />
    <glyph glyph-name="K" unicode="K" 
d="M76 104v28h44v-44l-22 -22l22 -22v-44h-44v28l-16 16h-16v-44h-44v132h44v-44h16z" />
    <glyph glyph-name="K" unicode="k" 
d="M76 104v28h44v-44l-22 -22l22 -22v-44h-44v28l-16 16h-16v-44h-44v132h44v-44h16z" />
    <glyph glyph-name="L" unicode="L" 
d="M44 132v-88h32v22h44v-66h-120v132h44z" />
    <glyph glyph-name="L" unicode="l" 
d="M44 132v-88h32v22h44v-66h-120v132h44z" />
    <glyph glyph-name="M" unicode="M" horiz-adv-x="152" 
d="M44 132v-16l22 -22l22 22v16h44v-132h-44v52l-22 -22l-22 22v-52h-44v132h44z" />
    <glyph glyph-name="M" unicode="m" horiz-adv-x="152" 
d="M44 132v-16l22 -22l22 22v16h44v-132h-44v52l-22 -22l-22 22v-52h-44v132h44z" />
    <glyph glyph-name="N" unicode="N" 
d="M76 132h44v-132h-44v50l-32 -32v-18h-44v132h44v-50l32 32v18z" />
    <glyph glyph-name="P" unicode="P" 
d="M120 22h-76v-22h-44v132h80l40 -40v-70zM76 72l-16 16h-16v-22h32v6z" />
    <glyph glyph-name="P" unicode="p" 
d="M120 22h-76v-22h-44v132h80l40 -40v-70zM76 72l-16 16h-16v-22h32v6z" />
    <glyph glyph-name="Q" unicode="Q" 
d="M0 0v132h120v-132h-38v-22h-44v22h-38zM44 88v-44h32v44h-32z" />
    <glyph glyph-name="Q" unicode="q" 
d="M0 0v132h120v-132h-38v-22h-44v22h-38zM44 88v-44h32v44h-32z" />
    <glyph glyph-name="R" unicode="R" 
d="M44 82l16 -16h16v16h-32zM0 132h120v-132h-44v22h-16l-16 -16v-6h-44v22l22 22l-22 22v66z" />
    <glyph glyph-name="S" unicode="S" 
d="M120 88h-50l44 -44h6v-44h-120v44h50l-44 44h-6v44h120v-44z" />
    <glyph glyph-name="S" unicode="s" 
d="M120 88h-50l44 -44h6v-44h-120v44h50l-44 44h-6v44h120v-44z" />
    <glyph glyph-name="T" unicode="T" 
d="M0 88v44h120v-44h-38v-88h-44v88h-38z" />
    <glyph glyph-name="T" unicode="t" 
d="M0 88v44h120v-44h-38v-88h-44v88h-38z" />
    <glyph glyph-name="U" unicode="U" 
d="M0 132h44v-72l16 -16h16v88h44v-132h-80l-40 40v92z" />
    <glyph glyph-name="U" unicode="u" 
d="M0 132h44v-72l16 -16h16v88h44v-132h-80l-40 40v92z" />
    <glyph glyph-name="V" unicode="V" 
d="M0 132h44v-52l16 -16l16 16v52h44v-72l-60 -60l-60 60v72z" />
    <glyph glyph-name="V" unicode="v" 
d="M0 132h44v-52l16 -16l16 16v52h44v-72l-60 -60l-60 60v72z" />
    <glyph glyph-name="W" unicode="W" horiz-adv-x="152" 
d="M44 0h-44v132h44v-52l22 22l22 -22v52h44v-132h-44v16l-22 22l-22 -22v-16z" />
    <glyph glyph-name="W" unicode="w" horiz-adv-x="152" 
d="M44 0h-44v132h44v-52l22 22l22 -22v52h44v-132h-44v16l-22 22l-22 -22v-16z" />
    <glyph glyph-name="X" unicode="X" 
d="M0 132h44v-18l16 -16l16 16v18h44v-38l-28 -28l28 -28v-38h-44v18l-16 16l-16 -16v-18h-44v38l28 28l-28 28v38z" />
    <glyph glyph-name="X" unicode="x" 
d="M0 132h44v-18l16 -16l16 16v18h44v-38l-28 -28l28 -28v-38h-44v18l-16 16l-16 -16v-18h-44v38l28 28l-28 28v38z" />
    <glyph glyph-name="Y" unicode="Y" 
d="M0 132h44v-34l16 -16l16 16v34h44v-54l-38 -38v-40h-44v40l-38 38v54z" />
    <glyph glyph-name="Y" unicode="y" 
d="M0 132h44v-34l16 -16l16 16v34h44v-54l-38 -38v-40h-44v40l-38 38v54z" />
    <glyph glyph-name="bracketleft" unicode="[" horiz-adv-x="86" 
d="M44 88v-66h22v-44h-66v154h66v-44h-22z" />
    <glyph glyph-name="backslash" unicode="\" 
d="M44 114l76 -76v-38h-44v18l-76 76v38h44v-18z" />
    <glyph glyph-name="bracketright" unicode="]" horiz-adv-x="86" 
d="M22 88h-22v44h66v-154h-66v44h22v66z" />
    <glyph glyph-name="n" unicode="n" 
d="M44 132v-18l32 -32v50h44v-132h-44v18l-32 32v-50h-44v132h44z" />
    <glyph glyph-name="r" unicode="r" 
d="M76 82h-32v-16h16zM120 132v-66l-22 -22l22 -22v-22h-44v6l-16 16h-16v-22h-44v132h120z" />
    <glyph glyph-name="glyph7" 
d="M120 88h-66l22 -22l-22 -22h66v-44h-120v50l16 16l-16 16v50h120v-44z" />
    <glyph glyph-name="glyph17" 
d="M44 132v-18l16 -16l16 16v18h44v-132h-44v50l-16 -16l-16 16v-50h-44v132h44z" />
    <glyph glyph-name="glyph25" 
d="M0 132h44v-72l16 -16l16 16v72h44v-92l-40 -40h-40l-40 40v92z" />
    <glyph glyph-name="glyph34" 
d="M0 22v70l40 40h80v-132h-44v22h-76zM44 72v-6h32v22h-16z" />
    <glyph glyph-name="glyph58" 
d="M44 60l16 -16h60v-44h-80l-40 40v52l40 40h80v-66h-44v22h-16l-16 -16v-12z" />
  </font>
</defs>
</svg>
